<mxfile host="Electron" modified="2024-01-18T17:46:43.981Z" agent="Mozilla/5.0 (Macintosh; Intel Mac OS X 10_15_7) AppleWebKit/537.36 (KHTML, like Gecko) draw.io/22.1.11 Chrome/114.0.5735.289 Electron/25.9.8 Safari/537.36" etag="Q_ov7Rt5dJOE_gGNrTPW" version="22.1.11" type="device">
  <diagram name="Page-1" id="WIuPaBwjRCfxZ-bZSkR2">
    <mxGraphModel dx="1026" dy="743" grid="1" gridSize="10" guides="1" tooltips="1" connect="1" arrows="1" fold="1" page="1" pageScale="1" pageWidth="850" pageHeight="1100" math="0" shadow="0">
      <root>
        <mxCell id="0" />
        <mxCell id="1" parent="0" />
        <mxCell id="BLtc1hEX6kc4Wp5BoVjb-1" value="" style="shape=cylinder3;whiteSpace=wrap;html=1;boundedLbl=1;backgroundOutline=1;size=15;" parent="1" vertex="1">
          <mxGeometry x="220" y="270" width="150" height="150" as="geometry" />
        </mxCell>
        <mxCell id="BLtc1hEX6kc4Wp5BoVjb-2" value="goodreads DB - books" style="text;html=1;strokeColor=none;fillColor=none;align=center;verticalAlign=middle;whiteSpace=wrap;rounded=0;" parent="1" vertex="1">
          <mxGeometry x="255" y="210" width="80" height="30" as="geometry" />
        </mxCell>
        <mxCell id="BLtc1hEX6kc4Wp5BoVjb-3" value="goodreads DB - reviews" style="text;html=1;strokeColor=none;fillColor=none;align=center;verticalAlign=middle;whiteSpace=wrap;rounded=0;" parent="1" vertex="1">
          <mxGeometry x="450" y="220" width="80" height="30" as="geometry" />
        </mxCell>
        <mxCell id="BLtc1hEX6kc4Wp5BoVjb-4" value="" style="shape=cylinder3;whiteSpace=wrap;html=1;boundedLbl=1;backgroundOutline=1;size=15;" parent="1" vertex="1">
          <mxGeometry x="400" y="270" width="150" height="150" as="geometry" />
        </mxCell>
        <mxCell id="BLtc1hEX6kc4Wp5BoVjb-10" style="edgeStyle=orthogonalEdgeStyle;rounded=0;orthogonalLoop=1;jettySize=auto;html=1;exitX=1;exitY=0.5;exitDx=0;exitDy=0;entryX=0;entryY=0.5;entryDx=0;entryDy=0;" parent="1" target="BLtc1hEX6kc4Wp5BoVjb-9" edge="1">
          <mxGeometry relative="1" as="geometry">
            <mxPoint x="390" y="590" as="sourcePoint" />
          </mxGeometry>
        </mxCell>
        <mxCell id="BLtc1hEX6kc4Wp5BoVjb-8" value="user review" style="text;html=1;strokeColor=none;fillColor=none;align=center;verticalAlign=middle;whiteSpace=wrap;rounded=0;" parent="1" vertex="1">
          <mxGeometry x="330" y="575" width="60" height="30" as="geometry" />
        </mxCell>
        <mxCell id="BLtc1hEX6kc4Wp5BoVjb-13" value="likes it" style="edgeStyle=orthogonalEdgeStyle;rounded=0;orthogonalLoop=1;jettySize=auto;html=1;exitX=1;exitY=0;exitDx=0;exitDy=0;entryX=0;entryY=0.5;entryDx=0;entryDy=0;" parent="1" source="BLtc1hEX6kc4Wp5BoVjb-9" target="BLtc1hEX6kc4Wp5BoVjb-11" edge="1">
          <mxGeometry relative="1" as="geometry" />
        </mxCell>
        <mxCell id="BLtc1hEX6kc4Wp5BoVjb-14" value="hates it" style="edgeStyle=orthogonalEdgeStyle;rounded=0;orthogonalLoop=1;jettySize=auto;html=1;exitX=1;exitY=1;exitDx=0;exitDy=0;entryX=0;entryY=0.5;entryDx=0;entryDy=0;" parent="1" source="BLtc1hEX6kc4Wp5BoVjb-9" target="BLtc1hEX6kc4Wp5BoVjb-12" edge="1">
          <mxGeometry relative="1" as="geometry" />
        </mxCell>
        <mxCell id="BLtc1hEX6kc4Wp5BoVjb-9" value="classification score" style="text;html=1;strokeColor=none;fillColor=none;align=center;verticalAlign=middle;whiteSpace=wrap;rounded=0;" parent="1" vertex="1">
          <mxGeometry x="440" y="575" width="60" height="30" as="geometry" />
        </mxCell>
        <mxCell id="BLtc1hEX6kc4Wp5BoVjb-11" value="similar books are more recommended" style="text;html=1;strokeColor=none;fillColor=none;align=center;verticalAlign=middle;whiteSpace=wrap;rounded=0;" parent="1" vertex="1">
          <mxGeometry x="590" y="500" width="110" height="60" as="geometry" />
        </mxCell>
        <mxCell id="BLtc1hEX6kc4Wp5BoVjb-12" value="similar books are less recommended" style="text;html=1;strokeColor=none;fillColor=none;align=center;verticalAlign=middle;whiteSpace=wrap;rounded=0;" parent="1" vertex="1">
          <mxGeometry x="580" y="605" width="110" height="60" as="geometry" />
        </mxCell>
        <mxCell id="BLtc1hEX6kc4Wp5BoVjb-15" value="Recommendation:" style="text;html=1;strokeColor=none;fillColor=none;align=center;verticalAlign=middle;whiteSpace=wrap;rounded=0;" parent="1" vertex="1">
          <mxGeometry x="130" y="720" width="60" height="30" as="geometry" />
        </mxCell>
        <mxCell id="BLtc1hEX6kc4Wp5BoVjb-16" value="bank of embeddings" style="shape=cylinder3;whiteSpace=wrap;html=1;boundedLbl=1;backgroundOutline=1;size=15;" parent="1" vertex="1">
          <mxGeometry x="160" y="750" width="90" height="100" as="geometry" />
        </mxCell>
        <mxCell id="BLtc1hEX6kc4Wp5BoVjb-19" style="edgeStyle=orthogonalEdgeStyle;rounded=0;orthogonalLoop=1;jettySize=auto;html=1;exitX=1;exitY=0.5;exitDx=0;exitDy=0;" parent="1" source="BLtc1hEX6kc4Wp5BoVjb-17" edge="1">
          <mxGeometry relative="1" as="geometry">
            <mxPoint x="330" y="900.2857142857142" as="targetPoint" />
          </mxGeometry>
        </mxCell>
        <mxCell id="BLtc1hEX6kc4Wp5BoVjb-17" value="{&lt;br&gt;&quot;HP&quot;: 5&lt;br&gt;&quot;Hunger Games&quot;: 3&lt;br&gt;}" style="whiteSpace=wrap;html=1;aspect=fixed;" parent="1" vertex="1">
          <mxGeometry x="170" y="860" width="80" height="80" as="geometry" />
        </mxCell>
        <mxCell id="BLtc1hEX6kc4Wp5BoVjb-20" style="edgeStyle=orthogonalEdgeStyle;rounded=0;orthogonalLoop=1;jettySize=auto;html=1;exitX=1;exitY=0.5;exitDx=0;exitDy=0;" parent="1" source="BLtc1hEX6kc4Wp5BoVjb-18" edge="1">
          <mxGeometry relative="1" as="geometry">
            <mxPoint x="330" y="990" as="targetPoint" />
          </mxGeometry>
        </mxCell>
        <mxCell id="BLtc1hEX6kc4Wp5BoVjb-18" value="books that user hates" style="whiteSpace=wrap;html=1;aspect=fixed;" parent="1" vertex="1">
          <mxGeometry x="170" y="950" width="80" height="80" as="geometry" />
        </mxCell>
      </root>
    </mxGraphModel>
  </diagram>
</mxfile>
